# Blender 4.3.2
# www.blender.org
mtllib box.mtl
o Box
v -0.195121 0.194783 -0.282010
v -0.195121 0.188707 -0.282010
v -0.184449 0.188707 -0.292682
v -0.184449 0.194783 -0.292682
v -0.195121 0.188707 0.282010
v -0.195121 0.194783 0.282010
v -0.184449 0.194783 0.292682
v -0.184449 0.188707 0.292682
v -0.189061 0.000000 0.289061
v -0.189061 0.010939 0.300000
v -0.200000 0.010939 0.289061
v -0.189061 0.264080 0.300000
v -0.189061 0.275019 0.289061
v -0.200000 0.264080 0.289061
v -0.189061 0.000000 -0.289061
v -0.200000 0.010939 -0.289061
v -0.189061 0.010939 -0.300000
v -0.189061 0.275019 -0.289061
v -0.189061 0.264080 -0.300000
v -0.200000 0.264080 -0.289061
v 0.189061 0.000000 0.289061
v 0.200000 0.010939 0.289061
v 0.189061 0.010939 0.300000
v 0.189061 0.275019 0.289061
v 0.189061 0.264080 0.300000
v 0.200000 0.264080 0.289061
v 0.189061 0.000000 -0.289061
v 0.189061 0.010939 -0.300000
v 0.200000 0.010939 -0.289061
v 0.189061 0.275019 -0.289061
v 0.200000 0.264080 -0.289061
v 0.189061 0.264080 -0.300000
v 0.200000 0.188631 0.289061
v 0.200000 0.194859 0.289061
v 0.189061 0.194859 0.300000
v 0.189061 0.188631 0.300000
v 0.189061 0.188631 -0.300000
v 0.189061 0.194859 -0.300000
v 0.200000 0.194859 -0.289061
v 0.200000 0.188631 -0.289061
v -0.200000 0.188631 -0.289061
v -0.200000 0.194859 -0.289061
v -0.189061 0.194859 -0.300000
v -0.189061 0.188631 -0.300000
v -0.200000 0.194859 0.289061
v -0.200000 0.188631 0.289061
v -0.189061 0.188631 0.300000
v -0.189061 0.194859 0.300000
v 0.184449 0.194783 0.292682
v 0.184449 0.188707 0.292682
v 0.195121 0.188707 0.282010
v 0.195121 0.194783 0.282010
v 0.195121 0.194783 -0.282010
v 0.195121 0.188707 -0.282010
v 0.184449 0.188707 -0.292682
v 0.184449 0.194783 -0.292682
vn -0.0000 -0.0000 1.0000
vn 1.0000 -0.0000 -0.0000
vn -0.0000 1.0000 -0.0000
vn -0.7071 -0.0000 -0.7071
vn -0.5774 -0.5774 0.5773
vn -0.5774 0.5774 0.5773
vn -0.5774 -0.5774 -0.5773
vn -0.5774 0.5774 -0.5773
vn 0.5774 -0.5774 0.5773
vn 0.5774 0.5774 0.5773
vn 0.5774 -0.5774 -0.5773
vn 0.5774 0.5774 -0.5773
vn -0.7071 -0.7071 -0.0000
vn -0.7071 -0.0000 0.7071
vn -0.7071 0.7071 -0.0000
vn -1.0000 -0.0000 -0.0000
vn -0.0000 -0.7071 -0.7071
vn -0.0000 0.7071 -0.7071
vn 0.7071 -0.0000 -0.7071
vn 0.7071 -0.7071 -0.0000
vn 0.7071 0.7071 -0.0000
vn -0.0000 -0.7071 0.7071
vn -0.0000 0.7071 0.7071
vn -0.0000 -1.0000 -0.0000
vn -0.0000 -0.0000 -1.0000
vn 0.7071 -0.0000 0.7071
vn 0.0064 1.0000 -0.0064
vn 0.0156 -0.9999 -0.0000
vn -0.0064 1.0000 -0.0064
vn -0.0156 0.9999 -0.0000
vn 0.0064 -1.0000 0.0064
vn -0.0156 -0.9999 -0.0000
vn -0.0064 1.0000 0.0064
vn -0.0000 0.9999 -0.0104
vn 0.0156 0.9999 -0.0000
vn -0.0064 -1.0000 -0.0064
vn -0.0000 -0.9999 0.0104
vn 0.0064 -1.0000 -0.0064
vn -0.0000 0.9999 0.0104
vn -0.0064 -1.0000 0.0064
vn -0.0000 -0.9999 -0.0104
vn 0.0064 1.0000 0.0064
vt 0.384944 0.756837
vt 0.546471 0.756837
vt 0.546471 0.993163
vt 0.384944 0.993163
vt 0.552132 0.756837
vt 0.615056 0.756837
vt 0.615056 0.993163
vt 0.552132 0.993163
vt 0.552132 0.504558
vt 0.615056 0.504558
vt 0.615056 0.745442
vt 0.552132 0.745442
vt 0.631837 0.504558
vt 0.868163 0.504558
vt 0.868163 0.745442
vt 0.631837 0.745442
vt 0.546471 0.256837
vt 0.384944 0.256837
vt 0.384944 0.245442
vt 0.546471 0.245442
vt 0.615056 0.256837
vt 0.552132 0.256837
vt 0.552132 0.245442
vt 0.615056 0.245442
vt 0.131837 0.745442
vt 0.131837 0.750000
vt 0.125000 0.745442
vt 0.625000 0.993163
vt 0.615056 1.000000
vt 0.131837 0.504558
vt 0.125000 0.504558
vt 0.131837 0.500000
vt 0.625000 0.256837
vt 0.615056 0.250000
vt 0.368163 0.745442
vt 0.375000 0.745442
vt 0.368163 0.750000
vt 0.625000 0.756837
vt 0.615056 0.750000
vt 0.368163 0.504558
vt 0.368163 0.500000
vt 0.375000 0.504558
vt 0.625000 0.504558
vt 0.615056 0.500000
vt 0.552132 0.000000
vt 0.552132 0.004558
vt 0.546471 0.004558
vt 0.546471 0.000000
vt 0.625000 0.004558
vt 0.625000 0.245442
vt 0.615056 0.004558
vt 0.384944 0.004558
vt 0.625000 0.493163
vt 0.615056 0.493163
vt 0.552132 0.504558
vt 0.552132 0.493163
vt 0.384944 0.504558
vt 0.384944 0.745442
vt 0.546471 0.504558
vt 0.546471 0.745442
vt 0.368163 0.750000
vt 0.552132 0.256837
vt 0.552132 0.493163
vt 0.552132 0.004558
vt 0.615056 0.000000
vt 0.384944 0.493163
vt 0.546471 0.493163
vt 0.384944 0.000000
vt 0.552132 0.756837
s 0
usemtl Box_Bottom
f 23/1/1 36/2/1 47/3/1 10/4/1
f 35/5/1 25/6/1 12/7/1 48/8/1
f 39/9/2 31/10/2 26/11/2 34/12/2
f 30/13/3 18/14/3 13/15/3 24/16/3
f 44/17/4 17/18/4 16/19/4 41/20/4
f 19/21/4 43/22/4 42/23/4 20/24/4
f 9/25/5 10/26/5 11/27/5
f 12/7/6 13/28/6 14/29/6
f 15/30/7 16/31/7 17/32/7
f 18/33/8 19/21/8 20/34/8
f 21/35/9 22/36/9 23/37/9
f 24/38/10 25/6/10 26/39/10
f 27/40/11 28/41/11 29/42/11
f 30/43/12 31/10/12 32/44/12
f 15/30/13 9/25/13 11/27/13 16/31/13
f 13/49/15 18/50/15 20/24/15 14/51/15
f 11/52/16 46/47/16 41/20/16 16/19/16
f 27/40/17 15/30/17 17/32/17 28/41/17
f 18/33/18 30/53/18 32/54/18 19/21/18
f 31/10/19 39/55/19 38/56/19 32/54/19
f 21/35/20 27/40/20 29/57/20 22/58/20
f 30/13/21 24/16/21 26/11/21 31/10/21
f 29/57/2 40/59/2 33/60/2 22/58/2
f 9/25/22 21/35/22 23/61/22 10/26/22
f 24/38/23 13/28/23 12/7/23 25/6/23
f 15/30/24 27/40/24 21/35/24 9/25/24
f 43/62/25 19/21/25 32/54/25 38/63/25
f 45/64/16 14/51/16 20/24/16 42/23/16
f 48/45/14 12/65/14 14/51/14 45/46/14
f 40/59/19 29/57/19 28/66/19 37/67/19
f 10/68/14 47/48/14 46/47/14 11/52/14
f 25/6/26 35/69/26 34/12/26 26/11/26
f 17/18/25 44/17/25 37/67/25 28/66/25
f 36/2/26 23/1/26 22/58/26 33/60/26
usemtl Box_Fold
f 7/45/14 6/46/14 5/47/14 8/48/14
f 40/59/27 37/67/27 55/67/27 54/59/27
f 39/9/28 34/12/28 52/12/28 53/9/28
f 44/17/29 41/20/29 2/20/29 3/17/29
f 41/20/30 46/47/30 5/47/30 2/20/30
f 34/12/31 35/69/31 49/69/31 52/12/31
f 45/64/32 42/23/32 1/23/32 6/64/32
f 46/47/33 47/48/33 8/48/33 5/47/33
f 37/67/34 44/17/34 3/17/34 55/67/34
f 3/17/4 2/20/4 1/23/4 4/22/4
f 50/2/26 51/60/26 52/12/26 49/69/26
f 54/59/19 55/67/19 56/56/19 53/55/19
f 4/62/25 56/63/25 55/67/25 3/17/25
f 6/64/16 1/23/16 2/20/16 5/47/16
f 53/9/2 52/12/2 51/60/2 54/59/2
f 49/5/1 7/8/1 8/3/1 50/2/1
f 33/60/35 40/59/35 54/59/35 51/60/35
f 42/23/36 43/22/36 4/22/36 1/23/36
f 35/5/37 48/8/37 7/8/37 49/5/37
f 38/56/38 39/55/38 53/55/38 56/56/38
f 47/3/39 36/2/39 50/2/39 8/3/39
f 48/45/40 45/46/40 6/46/40 7/45/40
f 43/62/41 38/63/41 56/63/41 4/62/41
f 36/2/42 33/60/42 51/60/42 50/2/42
o Hinges
v -0.205191 0.172015 0.218129
v -0.205191 0.211992 0.218129
v -0.205191 0.172015 0.193927
v -0.205191 0.211992 0.193927
v -0.195804 0.172015 0.218129
v -0.195804 0.211992 0.218129
v -0.195804 0.172015 0.193927
v -0.195804 0.211992 0.193927
v -0.209667 0.192003 0.218129
v -0.209667 0.192003 0.193927
v -0.195804 0.192003 0.193927
v -0.195804 0.192003 0.218129
v -0.205191 0.172015 -0.218129
v -0.205191 0.211992 -0.218129
v -0.205191 0.172015 -0.193927
v -0.205191 0.211992 -0.193927
v -0.195804 0.172015 -0.218129
v -0.195804 0.211992 -0.218129
v -0.195804 0.172015 -0.193927
v -0.195804 0.211992 -0.193927
v -0.209667 0.192003 -0.218129
v -0.209667 0.192003 -0.193927
v -0.195804 0.192003 -0.193927
v -0.195804 0.192003 -0.218129
vn -0.9758 0.2185 -0.0000
vn -0.0000 -0.0000 -1.0000
vn -0.0000 -0.0000 1.0000
vn -0.0000 -1.0000 -0.0000
vn -0.0000 1.0000 -0.0000
vn -0.9758 -0.2185 -0.0000
vt 0.500000 0.000000
vt 0.625000 0.000000
vt 0.625000 0.250000
vt 0.500000 0.250000
vt 0.625000 0.500000
vt 0.500000 0.500000
vt 0.375000 0.750000
vt 0.500000 0.750000
vt 0.500000 1.000000
vt 0.375000 1.000000
vt 0.625000 0.750000
vt 0.625000 1.000000
vt 0.125000 0.500000
vt 0.375000 0.500000
vt 0.125000 0.750000
vt 0.875000 0.500000
vt 0.875000 0.750000
vt 0.375000 0.250000
vt 0.375000 0.000000
s 0
usemtl Hinges
f 65/70/43 58/71/43 60/72/43 66/73/43
f 66/73/44 60/72/44 64/74/44 67/75/44
f 61/76/45 68/77/45 65/78/45 57/79/45
f 68/77/45 62/80/45 58/81/45 65/78/45
f 59/82/46 63/83/46 61/76/46 57/84/46
f 64/74/47 60/85/47 58/86/47 62/80/47
f 59/87/44 66/73/44 67/75/44 63/83/44
f 57/88/48 65/70/48 66/73/48 59/87/48
f 77/70/43 78/73/43 72/72/43 70/71/43
f 78/73/45 79/75/45 76/74/45 72/72/45
f 73/76/44 69/79/44 77/78/44 80/77/44
f 80/77/44 77/78/44 70/81/44 74/80/44
f 71/82/46 69/84/46 73/76/46 75/83/46
f 76/74/47 74/80/47 70/86/47 72/85/47
f 71/87/45 75/83/45 79/75/45 78/73/45
f 69/88/48 71/87/48 78/73/48 77/70/48
o Lock
v 0.199682 0.178319 0.029979
v 0.199682 0.218947 0.029979
v 0.199682 0.178319 -0.029979
v 0.199682 0.218947 -0.029979
v 0.205684 0.178319 0.029979
v 0.205684 0.218947 0.029979
v 0.205684 0.178319 -0.029979
v 0.205684 0.218947 -0.029979
v 0.199682 0.161195 -0.000000
v 0.199682 0.221153 -0.000000
v 0.205684 0.161195 -0.000000
v 0.205684 0.221153 -0.000000
v 0.199682 0.186984 0.029979
v 0.199682 0.207298 0.029979
v 0.199682 0.207298 -0.029979
v 0.199682 0.186984 -0.029979
v 0.205684 0.186984 -0.029979
v 0.205684 0.207298 -0.029979
v 0.205684 0.186984 0.029979
v 0.205684 0.207298 0.029979
v 0.205684 0.210441 -0.000000
v 0.205684 0.183841 -0.000000
v 0.205684 0.210441 0.013367
v 0.205684 0.183841 0.013367
v 0.205684 0.210441 -0.013367
v 0.205684 0.183841 -0.013367
v 0.205684 0.212063 -0.014989
v 0.205684 0.212063 -0.000000
v 0.205684 0.182219 0.014989
v 0.205684 0.182219 -0.000000
v 0.205684 0.212063 0.014989
v 0.205684 0.182219 -0.014989
v 0.204827 0.182219 -0.014989
v 0.204827 0.212063 0.014989
v 0.204827 0.182219 -0.000000
v 0.204827 0.182219 0.014989
v 0.204827 0.212063 -0.000000
v 0.204827 0.212063 -0.014989
v 0.210582 0.209218 -0.012144
v 0.209359 0.210441 -0.013367
v 0.209359 0.210441 -0.000000
v 0.210582 0.209218 -0.000000
v 0.210582 0.185065 0.012144
v 0.209359 0.183841 0.013367
v 0.209359 0.183841 -0.000000
v 0.210582 0.185065 -0.000000
v 0.209359 0.210441 0.013367
v 0.210582 0.209218 0.012144
v 0.209359 0.183841 -0.013367
v 0.210582 0.185065 -0.012144
v 0.204827 0.210441 -0.013367
v 0.204827 0.210441 -0.000000
v 0.204827 0.183841 0.013367
v 0.204827 0.183841 -0.000000
v 0.204827 0.210441 0.013367
v 0.204827 0.183841 -0.013367
vn -0.0000 0.9973 -0.0734
vn 1.0000 -0.0000 -0.0000
vn -0.0000 -0.0000 1.0000
vn -0.0000 -0.8683 0.4960
vn -0.0000 0.9973 0.0734
vn -0.0000 -0.8683 -0.4960
vn -0.0000 -0.0000 -1.0000
vn -0.0000 -1.0000 -0.0000
vn -0.0000 1.0000 -0.0000
vn 0.7071 0.7071 -0.0000
vn 0.7071 -0.7071 -0.0000
vn 0.7071 -0.0000 0.7071
vn 0.7071 -0.0000 -0.7071
vt 0.625000 0.500000
vt 0.875000 0.500000
vt 0.875000 0.625000
vt 0.625000 0.625000
vt 0.375000 0.500000
vt 0.432543 0.500000
vt 0.448611 0.562500
vt 0.464679 0.625000
vt 0.375000 0.625000
vt 0.375000 0.750000
vt 0.432543 0.750000
vt 0.432543 1.000000
vt 0.375000 1.000000
vt 0.125000 0.625000
vt 0.125000 0.750000
vt 0.875000 0.750000
vt 0.625000 0.750000
vt 0.125000 0.500000
vt 0.464679 0.625000
vt 0.448611 0.687500
vt 0.558227 0.500000
vt 0.552877 0.625000
vt 0.555552 0.562500
vt 0.375000 0.250000
vt 0.432543 0.250000
vt 0.558227 0.750000
vt 0.555552 0.687500
vt 0.558227 0.250000
vt 0.625000 0.250000
vt 0.558227 0.500000
vt 0.558227 0.750000
vt 0.558227 1.000000
vt 0.625000 1.000000
vt 0.467172 0.625000
vt 0.455560 0.569263
vt 0.547816 0.625000
vt 0.549650 0.569263
vt 0.455560 0.680737
vt 0.549650 0.680737
vt 0.455560 0.680737
vt 0.545272 0.574363
vt 0.543937 0.625000
vt 0.545272 0.675636
vt 0.460590 0.675637
vt 0.469435 0.625000
vt 0.460590 0.574363
s 0
usemtl Lock_Plate
f 88/89/49 84/90/49 90/91/49 92/92/49
f 87/93/50 97/94/50 112/95/50 110/96/50 91/97/50
f 85/98/51 99/99/51 93/100/51 81/101/51
f 89/102/52 91/97/52 85/98/52 81/103/52
f 92/92/53 90/91/53 82/104/53 86/105/53
f 83/106/54 87/93/54 91/97/54 89/102/54
f 91/97/50 110/107/50 109/108/50 99/99/50 85/98/50
f 98/109/50 88/89/50 92/92/50 108/110/50 107/111/50
f 83/112/55 96/113/55 97/94/55 87/93/55
f 108/110/50 92/92/50 86/105/50 100/114/50 111/115/50
f 95/116/55 84/117/55 88/89/55 98/118/55
f 100/119/51 94/120/51 93/100/51 99/99/51
f 111/115/50 100/114/50 99/99/50 109/108/50
f 95/116/55 98/118/55 97/94/55 96/113/55
f 100/119/51 86/105/51 82/121/51 94/120/51
f 98/109/50 107/111/50 112/95/50 97/94/50
usemtl Lock_Button
f 102/122/56 106/123/56 129/123/56 125/122/56
f 101/124/57 105/125/57 131/125/57 132/124/57
f 104/126/51 103/127/51 135/127/51 133/126/51
f 103/127/57 101/124/57 132/124/57 135/127/57
f 106/123/55 105/125/55 120/125/55 129/123/55
f 103/127/51 104/126/51 124/126/51 127/127/51
f 104/126/56 102/122/56 125/122/56 124/128/56
f 119/129/50 122/130/50 128/131/50 123/132/50 126/133/50 130/134/50
f 101/124/57 103/127/57 127/127/57 121/124/57
f 120/125/58 121/124/58 122/130/58 119/129/58
f 124/128/59 125/122/59 126/133/59 123/132/59
f 121/124/58 127/127/58 128/131/58 122/130/58
f 127/127/60 124/126/60 123/132/60 128/131/60
f 125/122/59 129/123/59 130/134/59 126/133/59
f 119/129/61 130/134/61 129/123/61 120/125/61
f 105/125/57 101/124/57 121/124/57 120/125/57
f 106/123/56 102/122/56 134/122/56 136/123/56
f 102/122/56 104/126/56 133/126/56 134/122/56
f 105/125/55 106/123/55 136/123/55 131/125/55
usemtl Lock_Button_Fold
f 107/111/56 108/110/56 117/110/56 118/111/56
f 111/115/55 109/108/55 116/108/55 114/115/55
f 112/95/51 107/111/51 118/111/51 113/95/51
f 132/124/50 131/125/50 118/111/50 117/110/50
f 134/122/50 133/126/50 116/108/50 115/96/50
f 135/127/50 132/124/50 117/110/50 114/115/50
f 133/126/50 135/127/50 114/115/50 116/108/50
f 136/123/50 134/122/50 115/96/50 113/95/50
f 131/125/50 136/123/50 113/95/50 118/111/50
f 109/108/57 110/107/57 115/107/57 116/108/57
f 108/110/56 111/115/56 114/115/56 117/110/56
f 110/96/57 112/95/57 113/95/57 115/96/57
